<svg
   xmlns:dc="http://purl.org/dc/elements/1.1/"
   xmlns:cc="http://creativecommons.org/ns#"
   xmlns:rdf="http://www.w3.org/1999/02/22-rdf-syntax-ns#"
   xmlns:svg="http://www.w3.org/2000/svg"
   xmlns="http://www.w3.org/2000/svg"
   xmlns:sodipodi="http://sodipodi.sourceforge.net/DTD/sodipodi-0.dtd"
   xmlns:inkscape="http://www.inkscape.org/namespaces/inkscape"
   id="svg2"
   height="320"
   width="320"
   version="1.1"
   viewBox="0 0 320 320.00001"
   sodipodi:docname="logo_white.svg"
   inkscape:version="0.92.2 5c3e80d, 2017-08-06">
  <metadata
     id="metadata19952">
    <rdf:RDF>
      <cc:Work
         rdf:about="">
        <dc:format>image/svg+xml</dc:format>
        <dc:type
           rdf:resource="http://purl.org/dc/dcmitype/StillImage" />
        <dc:title></dc:title>
      </cc:Work>
    </rdf:RDF>
  </metadata>
  <defs
     id="defs19950" />
  <sodipodi:namedview
     pagecolor="#ffffff"
     bordercolor="#666666"
     borderopacity="1"
     objecttolerance="10"
     gridtolerance="10"
     guidetolerance="10"
     inkscape:pageopacity="0"
     inkscape:pageshadow="2"
     inkscape:window-width="1270"
     inkscape:window-height="1086"
     id="namedview19948"
     showgrid="false"
     inkscape:pagecheckerboard="true"
     borderlayer="false"
     inkscape:showpageshadow="true"
     inkscape:zoom="1.475"
     inkscape:cx="158.64407"
     inkscape:cy="132.88136"
     inkscape:window-x="469"
     inkscape:window-y="11"
     inkscape:window-maximized="0"
     inkscape:current-layer="g4241" />
  <g
     id="layer1"
     transform="translate(0 -732.36)"
     stroke-width="28">
    <g
       id="g5175-6-32"
       transform="matrix(1.0471 1.0606 -1.0484 1.0619 931.69 -208.55)" />
    <g
       id="g4241"
       fill="#fff">
      <path
         id="path3801"
         d="m 91.583974,804.56339 v 0 c 8.812736,0 15.956856,7.92227 15.956856,17.69492 v 141.55932 c 0,9.77264 -7.14412,17.69492 -15.956856,17.69492 -8.812726,0 -15.956854,-7.92228 -15.956854,-17.69492 v -141.55932 0 c 0,-9.77265 7.144128,-17.69492 15.956854,-17.69492 z m 47.870576,70.77967 v 0 c 8.81273,0 15.95685,7.92227 15.95685,17.6949 v 70.77967 c 0,9.77264 -7.14412,17.69492 -15.95685,17.69492 -8.81274,0 -15.95685,-7.92228 -15.95685,-17.69492 v -70.77967 c 0,-9.77263 7.14411,-17.6949 15.95685,-17.6949 z m 47.87056,0 c 8.81274,0 15.95687,7.92227 15.95687,17.6949 v 70.77967 c 0,9.77264 -7.14413,17.69492 -15.95687,17.69492 -8.81272,0 -15.95685,-7.92228 -15.95685,-17.69492 v -70.77967 c 0,-9.77263 7.14413,-17.6949 15.95685,-17.6949 z m 47.87058,-70.77967 c 8.81274,0 15.95685,7.92227 15.95685,17.69492 v 141.55932 c 0,9.77264 -7.14411,17.69492 -15.95685,17.69492 -8.81274,0 -15.95686,-7.92228 -15.95686,-17.69492 v -141.55932 0 c 0,-9.77265 7.14412,-17.69492 15.95686,-17.69492 z"
         inkscape:connector-curvature="0"
         style="fill:#ffffff;stroke-width:117.62400055" />
      <ellipse
         id="path20785"
         cx="160.74576"
         cy="892.73291"
         style="fill:#000000;fill-opacity:0.01265821;stroke:#ffffff;stroke-width:2;stroke-miterlimit:4;stroke-dasharray:none;stroke-opacity:1"
         rx="152.41762"
         ry="146.65492" />
    </g>
  </g>
</svg>
