<svg xmlns="http://www.w3.org/2000/svg" width="360" height="72" viewBox="0 0 360 72" fill="#ffffff">
  <path d="M36,72 C16.117749,72 0,55.882251 0,36 C0,16.117749 16.117749,0 36,0 C55.882251,0 72,16.117749 72,36 C72,55.882251 55.882251,72 36,72 Z M18,16 C15.790861,16 14,17.790861 14,20 L14,52 C14,54.209139 15.790861,56 18,56 C20.209139,56 22,54.209139 22,52 L22,20 C22,17.790861 20.209139,16 18,16 Z M30,32 C27.790861,32 26,33.790861 26,36 L26,52 C26,54.209139 27.790861,56 30,56 C32.209139,56 34,54.209139 34,52 L34,36 C34,33.790861 32.209139,32 30,32 Z M42,32 C39.790861,32 38,33.790861 38,36 L38,52 C38,54.209139 39.790861,56 42,56 C44.209139,56 46,54.209139 46,52 L46,36 C46,33.790861 44.209139,32 42,32 Z M54,16 C51.790861,16 50,17.790861 50,20 L50,52 C50,54.209139 51.790861,56 54,56 C56.209139,56 58,54.209139 58,52 L58,20 C58,17.790861 56.209139,16 54,16 Z"/>
  <g transform="translate(90 22)">
    <path d="M 15.79 28.5 L 9.927 17.571 L 3.581 17.571 L 3.581 28.5 L 0 28.5 L 0 1.484 L 8.943 1.484 Q 12.102 1.484 14.252 2.48 A 7.552 7.552 0 0 1 15.966 3.563 A 6.706 6.706 0 0 1 18.185 7.314 A 10.356 10.356 0 0 1 18.425 9.611 A 7.868 7.868 0 0 1 18.04 12.109 A 6.924 6.924 0 0 1 17.061 14.009 A 7.805 7.805 0 0 1 14.279 16.359 A 9.89 9.89 0 0 1 13.267 16.811 L 19.612 28.277 L 19.612 28.5 L 15.79 28.5 Z M 3.581 4.416 L 3.581 14.658 L 9.055 14.658 A 8.302 8.302 0 0 0 10.813 14.483 Q 11.95 14.236 12.814 13.644 A 4.956 4.956 0 0 0 13.276 13.285 A 4.513 4.513 0 0 0 14.819 10.172 A 6.275 6.275 0 0 0 14.844 9.611 Q 14.844 7.321 13.595 6.008 A 4.222 4.222 0 0 0 13.35 5.771 A 4.864 4.864 0 0 0 11.592 4.785 Q 10.49 4.426 9.036 4.416 L 3.581 4.416 Z"/>
    <path d="M 21.969 18.518 L 21.969 18.276 A 12.905 12.905 0 0 1 22.336 15.145 A 10.863 10.863 0 0 1 23.128 12.97 A 9.12 9.12 0 0 1 24.879 10.497 A 8.263 8.263 0 0 1 26.357 9.333 A 8.598 8.598 0 0 1 30.344 8.078 A 10.516 10.516 0 0 1 31.079 8.053 A 9.614 9.614 0 0 1 34.26 8.558 A 8.177 8.177 0 0 1 37.712 10.892 A 9.667 9.667 0 0 1 39.904 15.235 A 14.24 14.24 0 0 1 40.245 18.443 L 40.245 18.685 A 13.147 13.147 0 0 1 39.909 21.711 A 10.882 10.882 0 0 1 39.123 23.945 A 8.683 8.683 0 0 1 36.896 26.858 A 8.447 8.447 0 0 1 35.913 27.572 A 8.636 8.636 0 0 1 32.029 28.833 A 10.677 10.677 0 0 1 31.116 28.871 A 9.55 9.55 0 0 1 27.948 28.366 A 8.183 8.183 0 0 1 24.501 26.032 A 9.7 9.7 0 0 1 22.282 21.578 A 14.176 14.176 0 0 1 21.969 18.518 Z M 26.455 23.264 A 6.522 6.522 0 0 0 26.969 24.047 A 4.899 4.899 0 0 0 30.522 26.042 A 6.234 6.234 0 0 0 31.116 26.069 A 5.358 5.358 0 0 0 33.183 25.684 Q 34.362 25.196 35.218 24.091 A 6.222 6.222 0 0 0 35.272 24.019 A 6.958 6.958 0 0 0 36.349 21.835 Q 36.639 20.877 36.747 19.727 A 15.431 15.431 0 0 0 36.813 18.276 A 11.347 11.347 0 0 0 36.597 15.998 Q 36.311 14.603 35.646 13.511 A 6.697 6.697 0 0 0 35.245 12.923 A 5.197 5.197 0 0 0 33.492 11.422 Q 32.474 10.899 31.205 10.874 A 6.489 6.489 0 0 0 31.079 10.873 A 5.146 5.146 0 0 0 28.855 11.344 Q 27.827 11.829 27.042 12.815 A 6.399 6.399 0 0 0 26.979 12.896 Q 25.42 14.918 25.42 18.685 Q 25.42 21.414 26.455 23.264 Z"/>
    <path d="M 57.334 22.173 L 60.581 22.173 A 6.047 6.047 0 0 1 59.74 24.916 A 7.482 7.482 0 0 1 59.394 25.457 A 7.72 7.72 0 0 1 56.821 27.756 A 9.157 9.157 0 0 1 56.471 27.943 A 8.432 8.432 0 0 1 52.603 28.871 A 9.907 9.907 0 0 1 49.659 28.455 A 7.765 7.765 0 0 1 46.081 26.134 Q 43.659 23.397 43.659 18.647 L 43.659 18.072 A 13.681 13.681 0 0 1 43.928 15.303 A 10.852 10.852 0 0 1 44.735 12.858 A 8.478 8.478 0 0 1 46.591 10.265 A 7.987 7.987 0 0 1 47.825 9.314 A 8.203 8.203 0 0 1 51.018 8.164 A 10.68 10.68 0 0 1 52.584 8.053 A 9.271 9.271 0 0 1 55.32 8.44 A 7.542 7.542 0 0 1 58.197 10.075 Q 60.433 12.098 60.581 15.326 L 57.334 15.326 A 5.148 5.148 0 0 0 56.902 13.577 A 4.59 4.59 0 0 0 55.859 12.125 A 4.55 4.55 0 0 0 52.78 10.876 A 5.918 5.918 0 0 0 52.584 10.873 Q 49.968 10.873 48.53 12.756 Q 47.092 14.64 47.092 18.202 L 47.092 18.852 A 13.573 13.573 0 0 0 47.231 20.864 Q 47.39 21.918 47.727 22.77 A 5.949 5.949 0 0 0 48.521 24.195 A 4.646 4.646 0 0 0 51.842 26.028 A 6.801 6.801 0 0 0 52.603 26.069 A 4.944 4.944 0 0 0 55.812 24.956 A 4.254 4.254 0 0 0 56.843 23.769 A 3.857 3.857 0 0 0 57.334 22.173 Z"/>
    <path d="M 77.039 28.5 L 70.044 19.204 L 67.892 21.449 L 67.892 28.5 L 64.459 28.5 L 64.459 0 L 67.892 0 L 67.892 17.237 L 69.729 15.029 L 75.981 8.424 L 80.156 8.424 L 72.345 16.811 L 81.065 28.5 L 77.039 28.5 Z"/>
    <path d="M 83.7 8.424 L 86.947 8.424 L 87.059 10.947 A 7.603 7.603 0 0 1 89.688 8.788 Q 91.2 8.053 93.07 8.053 Q 99.24 8.053 99.481 14.802 A 15.484 15.484 0 0 1 99.49 15.233 L 99.49 28.5 L 96.058 28.5 L 96.058 15.215 A 7.754 7.754 0 0 0 95.964 14.033 Q 95.752 12.738 95.065 12.005 A 2.987 2.987 0 0 0 93.867 11.242 Q 93.383 11.069 92.787 11.005 A 7.007 7.007 0 0 0 92.031 10.966 A 5.29 5.29 0 0 0 90.282 11.248 A 4.743 4.743 0 0 0 89.1 11.856 A 6.048 6.048 0 0 0 87.133 14.194 L 87.133 28.5 L 83.7 28.5 L 83.7 8.424 Z"/>
    <path d="M 108.396 8.424 L 108.396 28.5 L 104.964 28.5 L 104.964 8.424 L 108.396 8.424 Z M 104.803 2.356 A 2.261 2.261 0 0 0 104.686 3.099 A 2.553 2.553 0 0 0 104.696 3.328 A 1.926 1.926 0 0 0 105.196 4.49 A 1.527 1.527 0 0 0 105.512 4.753 Q 105.779 4.921 106.13 4.993 A 2.88 2.88 0 0 0 106.708 5.047 A 3.392 3.392 0 0 0 106.876 5.043 Q 107.754 4.999 108.229 4.49 A 1.866 1.866 0 0 0 108.642 3.798 A 2.207 2.207 0 0 0 108.749 3.099 A 2.59 2.59 0 0 0 108.746 2.97 A 2 2 0 0 0 108.229 1.688 A 1.577 1.577 0 0 0 107.975 1.462 Q 107.691 1.258 107.307 1.174 A 2.782 2.782 0 0 0 106.708 1.113 A 3.306 3.306 0 0 0 106.562 1.116 Q 106.253 1.13 105.994 1.203 A 1.627 1.627 0 0 0 105.196 1.688 A 1.964 1.964 0 0 0 104.803 2.356 Z"/>
    <path d="M 115.113 3.563 L 118.546 3.563 L 118.546 8.424 L 122.294 8.424 L 122.294 11.077 L 118.546 11.077 L 118.546 23.527 A 4.638 4.638 0 0 0 118.59 24.19 Q 118.695 24.912 119.047 25.336 A 1.482 1.482 0 0 0 119.659 25.764 Q 120.104 25.939 120.754 25.939 Q 121.348 25.939 122.387 25.717 L 122.387 28.5 A 10.4 10.4 0 0 1 120.559 28.835 A 9.108 9.108 0 0 1 119.752 28.871 A 6.042 6.042 0 0 1 118.379 28.725 Q 117.072 28.42 116.282 27.479 Q 115.113 26.088 115.113 23.527 L 115.113 11.077 L 111.458 11.077 L 111.458 8.424 L 115.113 8.424 L 115.113 3.563 Z"/>
    <path d="M 130.031 8.424 L 130.031 28.5 L 126.599 28.5 L 126.599 8.424 L 130.031 8.424 Z M 126.438 2.356 A 2.261 2.261 0 0 0 126.32 3.099 A 2.553 2.553 0 0 0 126.33 3.328 A 1.926 1.926 0 0 0 126.831 4.49 A 1.527 1.527 0 0 0 127.147 4.753 Q 127.414 4.921 127.765 4.993 A 2.88 2.88 0 0 0 128.343 5.047 A 3.392 3.392 0 0 0 128.511 5.043 Q 129.389 4.999 129.864 4.49 A 1.866 1.866 0 0 0 130.277 3.798 A 2.207 2.207 0 0 0 130.384 3.099 A 2.59 2.59 0 0 0 130.381 2.97 A 2 2 0 0 0 129.864 1.688 A 1.577 1.577 0 0 0 129.61 1.462 Q 129.326 1.258 128.942 1.174 A 2.782 2.782 0 0 0 128.343 1.113 A 3.306 3.306 0 0 0 128.197 1.116 Q 127.888 1.13 127.629 1.203 A 1.627 1.627 0 0 0 126.831 1.688 A 1.964 1.964 0 0 0 126.438 2.356 Z"/>
    <path d="M 137.045 8.424 L 142.147 23.843 L 147.12 8.424 L 150.627 8.424 L 143.428 28.5 L 140.812 28.5 L 133.538 8.424 L 137.045 8.424 Z"/>
    <path d="M 152.816 19.019 L 152.816 18.388 A 13.382 13.382 0 0 1 153.138 15.394 A 10.899 10.899 0 0 1 153.958 13.053 A 9.251 9.251 0 0 1 155.847 10.412 A 8.585 8.585 0 0 1 157.149 9.379 A 8.024 8.024 0 0 1 161.593 8.053 A 9.518 9.518 0 0 1 164.181 8.386 A 6.921 6.921 0 0 1 167.679 10.632 Q 169.435 12.719 169.77 16.263 A 18.634 18.634 0 0 1 169.85 18.017 L 169.85 19.445 L 156.249 19.445 A 8.915 8.915 0 0 0 156.549 21.591 A 6.401 6.401 0 0 0 157.984 24.242 A 5.413 5.413 0 0 0 161.928 26.064 A 6.974 6.974 0 0 0 162.205 26.069 A 7.445 7.445 0 0 0 163.591 25.947 Q 164.473 25.78 165.185 25.385 A 4.669 4.669 0 0 0 165.285 25.327 A 7.715 7.715 0 0 0 167.434 23.436 A 8.75 8.75 0 0 0 167.493 23.36 L 169.59 24.993 A 8.133 8.133 0 0 1 163.68 28.757 A 11.607 11.607 0 0 1 162.02 28.871 A 10.11 10.11 0 0 1 158.848 28.394 A 8.336 8.336 0 0 1 155.377 26.19 A 9.017 9.017 0 0 1 153.079 21.709 A 13.101 13.101 0 0 1 152.816 19.019 Z M 156.36 16.625 L 166.417 16.625 L 166.417 16.365 A 9.433 9.433 0 0 0 166.192 14.74 Q 165.98 13.842 165.587 13.136 A 4.772 4.772 0 0 0 165.007 12.311 A 4.151 4.151 0 0 0 162.244 10.908 A 5.867 5.867 0 0 0 161.593 10.873 A 4.67 4.67 0 0 0 159.387 11.392 A 4.813 4.813 0 0 0 158.104 12.385 Q 156.865 13.714 156.457 15.982 A 11.572 11.572 0 0 0 156.36 16.625 Z"/>
    <path d="M 201.689 9.296 L 198.108 9.296 A 6.189 6.189 0 0 0 197.898 7.639 A 4.502 4.502 0 0 0 196.55 5.446 Q 194.991 4.045 192.152 4.045 Q 190.292 4.045 189.01 4.623 A 4.649 4.649 0 0 0 188.042 5.205 A 3.768 3.768 0 0 0 186.586 7.969 A 5.35 5.35 0 0 0 186.567 8.424 A 3.401 3.401 0 0 0 187.698 10.979 A 4.789 4.789 0 0 0 187.968 11.216 A 6.595 6.595 0 0 0 188.973 11.877 Q 190.369 12.638 192.737 13.304 A 34.739 34.739 0 0 1 194.698 13.914 Q 195.691 14.258 196.513 14.624 A 13.92 13.92 0 0 1 198.006 15.391 Q 199.908 16.532 200.827 18.054 Q 201.745 19.575 201.745 21.635 A 6.78 6.78 0 0 1 201.228 24.321 Q 200.595 25.807 199.185 26.895 Q 196.889 28.667 193.206 28.85 A 17.473 17.473 0 0 1 192.338 28.871 Q 189.555 28.871 187.143 27.804 A 10.061 10.061 0 0 1 185.124 26.631 A 7.91 7.91 0 0 1 183.422 24.882 A 7.132 7.132 0 0 1 182.114 20.67 L 185.695 20.67 A 5.324 5.324 0 0 0 185.988 22.474 A 4.533 4.533 0 0 0 187.504 24.539 A 6.286 6.286 0 0 0 189.77 25.646 Q 190.668 25.89 191.73 25.943 A 12.12 12.12 0 0 0 192.338 25.958 A 11.095 11.095 0 0 0 193.972 25.846 Q 194.8 25.722 195.472 25.463 A 4.766 4.766 0 0 0 196.661 24.808 A 3.668 3.668 0 0 0 198.141 22.155 A 4.862 4.862 0 0 0 198.164 21.672 A 4.534 4.534 0 0 0 197.984 20.361 A 3.443 3.443 0 0 0 196.772 18.601 A 6.585 6.585 0 0 0 195.826 18.001 Q 194.367 17.222 191.726 16.458 A 28.931 28.931 0 0 1 189.224 15.623 Q 186.76 14.663 185.323 13.455 A 7.906 7.906 0 0 1 185.055 13.22 A 6.333 6.333 0 0 1 183.353 10.737 A 6.478 6.478 0 0 1 182.968 8.479 A 6.457 6.457 0 0 1 185.063 3.602 A 8.346 8.346 0 0 1 185.519 3.201 A 8.954 8.954 0 0 1 189.279 1.413 A 13.034 13.034 0 0 1 192.152 1.113 A 12.299 12.299 0 0 1 194.939 1.417 A 10.014 10.014 0 0 1 197.116 2.189 Q 199.296 3.266 200.493 5.158 A 7.591 7.591 0 0 1 201.689 9.296 Z"/>
    <path d="M 218.24 28.5 L 218.166 26.515 Q 216.183 28.846 212.365 28.871 A 12.672 12.672 0 0 1 212.284 28.871 Q 209.698 28.871 208.105 27.66 A 5.139 5.139 0 0 1 207.395 27.006 A 5.953 5.953 0 0 1 206.2 24.907 Q 205.707 23.457 205.697 21.486 L 205.697 8.424 L 209.13 8.424 L 209.13 21.394 A 8.246 8.246 0 0 0 209.283 23.06 Q 209.884 25.958 212.841 25.958 A 8.137 8.137 0 0 0 214.745 25.751 Q 217.119 25.179 218.073 23.026 L 218.073 8.424 L 221.506 8.424 L 221.506 28.5 L 218.24 28.5 Z"/>
    <path d="M 230.449 8.424 L 230.449 28.5 L 227.017 28.5 L 227.017 8.424 L 230.449 8.424 Z M 226.856 2.356 A 2.261 2.261 0 0 0 226.738 3.099 A 2.553 2.553 0 0 0 226.748 3.328 A 1.926 1.926 0 0 0 227.249 4.49 A 1.527 1.527 0 0 0 227.565 4.753 Q 227.832 4.921 228.183 4.993 A 2.88 2.88 0 0 0 228.761 5.047 A 3.392 3.392 0 0 0 228.929 5.043 Q 229.807 4.999 230.282 4.49 A 1.866 1.866 0 0 0 230.695 3.798 A 2.207 2.207 0 0 0 230.802 3.099 A 2.59 2.59 0 0 0 230.799 2.97 A 2 2 0 0 0 230.282 1.688 A 1.577 1.577 0 0 0 230.028 1.462 Q 229.744 1.258 229.36 1.174 A 2.782 2.782 0 0 0 228.761 1.113 A 3.306 3.306 0 0 0 228.615 1.116 Q 228.306 1.13 228.047 1.203 A 1.627 1.627 0 0 0 227.249 1.688 A 1.964 1.964 0 0 0 226.856 2.356 Z"/>
    <path d="M 237.166 3.563 L 240.599 3.563 L 240.599 8.424 L 244.347 8.424 L 244.347 11.077 L 240.599 11.077 L 240.599 23.527 A 4.638 4.638 0 0 0 240.643 24.19 Q 240.747 24.912 241.1 25.336 A 1.482 1.482 0 0 0 241.711 25.764 Q 242.157 25.939 242.807 25.939 Q 243.4 25.939 244.439 25.717 L 244.439 28.5 A 10.4 10.4 0 0 1 242.612 28.835 A 9.108 9.108 0 0 1 241.805 28.871 A 6.042 6.042 0 0 1 240.432 28.725 Q 239.125 28.42 238.335 27.479 Q 237.166 26.088 237.166 23.527 L 237.166 11.077 L 233.511 11.077 L 233.511 8.424 L 237.166 8.424 L 237.166 3.563 Z"/>
    <path d="M 247.482 19.019 L 247.482 18.388 A 13.382 13.382 0 0 1 247.804 15.394 A 10.899 10.899 0 0 1 248.624 13.053 A 9.251 9.251 0 0 1 250.513 10.412 A 8.585 8.585 0 0 1 251.815 9.379 A 8.024 8.024 0 0 1 256.259 8.053 A 9.518 9.518 0 0 1 258.847 8.386 A 6.921 6.921 0 0 1 262.345 10.632 Q 264.101 12.719 264.436 16.263 A 18.634 18.634 0 0 1 264.516 18.017 L 264.516 19.445 L 250.915 19.445 A 8.915 8.915 0 0 0 251.215 21.591 A 6.401 6.401 0 0 0 252.65 24.242 A 5.413 5.413 0 0 0 256.594 26.064 A 6.974 6.974 0 0 0 256.871 26.069 A 7.445 7.445 0 0 0 258.257 25.947 Q 259.139 25.78 259.851 25.385 A 4.669 4.669 0 0 0 259.951 25.327 A 7.715 7.715 0 0 0 262.1 23.436 A 8.75 8.75 0 0 0 262.159 23.36 L 264.256 24.993 A 8.133 8.133 0 0 1 258.346 28.757 A 11.607 11.607 0 0 1 256.686 28.871 A 10.11 10.11 0 0 1 253.514 28.394 A 8.336 8.336 0 0 1 250.043 26.19 A 9.017 9.017 0 0 1 247.745 21.709 A 13.101 13.101 0 0 1 247.482 19.019 Z M 251.026 16.625 L 261.083 16.625 L 261.083 16.365 A 9.433 9.433 0 0 0 260.858 14.74 Q 260.646 13.842 260.253 13.136 A 4.772 4.772 0 0 0 259.673 12.311 A 4.151 4.151 0 0 0 256.91 10.908 A 5.867 5.867 0 0 0 256.259 10.873 A 4.67 4.67 0 0 0 254.053 11.392 A 4.813 4.813 0 0 0 252.771 12.385 Q 251.531 13.714 251.123 15.982 A 11.572 11.572 0 0 0 251.026 16.625 Z"/>
  </g>
</svg>
