<svg xmlns="http://www.w3.org/2000/svg" height="72" width="72" viewBox="0 0 72 72">
  <defs>
    <linearGradient id="9b08b62dfc839e79" x1="100%" x2="0%" y1="0%" y2="100%">
      <stop offset="0%" stop-color="#5CFFFF"/>
      <stop offset="100%" stop-color="#5C5CFF"/>
    </linearGradient>
  </defs>
  <g>
    <circle r="30" cx="36" cy="36" fill="#ffffff"/>
    <path fill="url(#9b08b62dfc839e79)" d="M36,72 C16.117749,72 0,55.882251 0,36 C0,16.117749 16.117749,0 36,0 C55.882251,0 72,16.117749 72,36 C72,55.882251 55.882251,72 36,72 Z M18,16 C15.790861,16 14,17.790861 14,20 L14,52 C14,54.209139 15.790861,56 18,56 C20.209139,56 22,54.209139 22,52 L22,20 C22,17.790861 20.209139,16 18,16 Z M30,32 C27.790861,32 26,33.790861 26,36 L26,52 C26,54.209139 27.790861,56 30,56 C32.209139,56 34,54.209139 34,52 L34,36 C34,33.790861 32.209139,32 30,32 Z M42,32 C39.790861,32 38,33.790861 38,36 L38,52 C38,54.209139 39.790861,56 42,56 C44.209139,56 46,54.209139 46,52 L46,36 C46,33.790861 44.209139,32 42,32 Z M54,16 C51.790861,16 50,17.790861 50,20 L50,52 C50,54.209139 51.790861,56 54,56 C56.209139,56 58,54.209139 58,52 L58,20 C58,17.790861 56.209139,16 54,16 Z"/>
  </g>
</svg>
