<svg
  xmlns:dc="http://purl.org/dc/elements/1.1/"
  xmlns:cc="http://creativecommons.org/ns#"
  xmlns:rdf="http://www.w3.org/1999/02/22-rdf-syntax-ns#"
  xmlns:svg="http://www.w3.org/2000/svg"
  xmlns="http://www.w3.org/2000/svg"
  xmlns:sodipodi="http://sodipodi.sourceforge.net/DTD/sodipodi-0.dtd"
  xmlns:inkscape="http://www.inkscape.org/namespaces/inkscape"
  id="svg2"
  height="320"
  width="320"
  version="1.1"
  viewBox="0 0 320 320.00001"
  sodipodi:docname="logo_white.svg"
  inkscape:version="0.92.2 5c3e80d, 2017-08-06">
  <metadata
    id="metadata19952">
    <rdf:RDF>
      <cc:Work
        rdf:about="">
        <dc:format>image/svg+xml</dc:format>
        <dc:type
          rdf:resource="http://purl.org/dc/dcmitype/StillImage" />
        <dc:title />
      </cc:Work>
    </rdf:RDF>
  </metadata>
  <defs
    id="defs19950">
    <linearGradient
      gradientUnits="userSpaceOnUse"
      x1="72"
      y1="0"
      x2="0"
      y2="72"
      id="linearGradient-1">
      <stop
        stop-color="#5CFFFF"
        offset="0%"
        id="stop2" />
      <stop
        stop-color="#5C5CFF"
        offset="100%"
        id="stop4" />
    </linearGradient>
  </defs>
  <sodipodi:namedview
    pagecolor="#ffffff"
    bordercolor="#666666"
    borderopacity="1"
    objecttolerance="10"
    gridtolerance="10"
    guidetolerance="10"
    inkscape:pageopacity="0"
    inkscape:pageshadow="2"
    inkscape:window-width="907"
    inkscape:window-height="894"
    id="namedview19948"
    showgrid="false"
    inkscape:pagecheckerboard="true"
    borderlayer="false"
    inkscape:showpageshadow="true"
    inkscape:zoom="1.475"
    inkscape:cx="158.64407"
    inkscape:cy="132.88136"
    inkscape:window-x="589"
    inkscape:window-y="194"
    inkscape:window-maximized="0"
    inkscape:current-layer="g4241" />
  <g
    id="layer1"
    transform="translate(0 -732.36)"
    stroke-width="28">
    <g
      id="g5175-6-32"
      transform="matrix(1.0471 1.0606 -1.0484 1.0619 931.69 -208.55)" />
    <g
      id="g4241"
      fill="#fff">
      <g
        id="rocknitive-logo-white-notext"
        transform="matrix(4.375,0,0,4.375,3.288135,735.22438)">
        <circle
          style="fill:url(#linearGradient-1);fill-rule:nonzero"
          id="Oval"
          cx="36"
          cy="36"
          r="36" />
        <g
          style="fill:#ffffff"
          id="Finger1"
          transform="translate(14,16)">
          <path
            inkscape:connector-curvature="0"
            d="m 4,16 c 2.209139,0 4,1.790861 4,4 V 36 C 8,38.209139 6.209139,40 4,40 1.790861,40 0,38.209139 0,36 V 20 c 0,-2.209139 1.790861,-4 4,-4 z"
            id="Finger1b" />
          <path
            inkscape:connector-curvature="0"
            d="M 4,0 C 6.209139,0 8,1.790861 8,4 V 20 C 8,22.209139 6.209139,24 4,24 1.790861,24 0,22.209139 0,20 V 4 C 0,1.790861 1.790861,0 4,0 Z"
            id="Finger1a" />
        </g>
        <path
          style="fill:#ffffff"
          inkscape:connector-curvature="0"
          d="m 30,32 c 2.209139,0 4,1.790861 4,4 v 16 c 0,2.209139 -1.790861,4 -4,4 -2.209139,0 -4,-1.790861 -4,-4 V 36 c 0,-2.209139 1.790861,-4 4,-4 z"
          id="Finger2" />
        <path
          style="fill:#ffffff"
          inkscape:connector-curvature="0"
          d="m 42,32 c 2.209139,0 4,1.790861 4,4 v 16 c 0,2.209139 -1.790861,4 -4,4 -2.209139,0 -4,-1.790861 -4,-4 V 36 c 0,-2.209139 1.790861,-4 4,-4 z"
          id="Finger3" />
        <g
          style="fill:#ffffff"
          id="Finger4"
          transform="translate(50,16)">
          <path
            inkscape:connector-curvature="0"
            d="m 4,16 c 2.209139,0 4,1.790861 4,4 V 36 C 8,38.209139 6.209139,40 4,40 1.790861,40 0,38.209139 0,36 V 20 c 0,-2.209139 1.790861,-4 4,-4 z"
            id="Finger4b" />
          <path
            inkscape:connector-curvature="0"
            d="M 4,0 C 6.209139,0 8,1.790861 8,4 V 20 C 8,22.209139 6.209139,24 4,24 1.790861,24 0,22.209139 0,20 V 4 C 0,1.790861 1.790861,0 4,0 Z"
            id="Finger4a" />
        </g>
      </g>
    </g>
  </g>
</svg>
